<?xml version="1.0" encoding="utf-8"?>
<!-- Generator: Adobe Illustrator 18.1.1, SVG Export Plug-In . SVG Version: 6.00 Build 0)  -->
<svg version="1.1" id="Layer_1" xmlns="http://www.w3.org/2000/svg" xmlns:xlink="http://www.w3.org/1999/xlink" x="0px" y="0px"
	 viewBox="0 0 700 700" enable-background="new 0 0 700 700" xml:space="preserve">
<g>
	<path fill="#B85834" d="M624.4,528.5l-44.8-13.6l-33.5-12l-0.2-0.1l-0.4-0.5c-1.1-1.5-5.5-6.5-14.8-10.3c-4-1.7-8.1-2.5-12-2.5
		c-4.5,0-7.5,1.1-8.6,1.6l-3.7,1.6l-2,3.5c0,0.1-2,3.6-5.8,9.2c-37.4-12.2-47.9-21.2-52.6-26.5l-2.5-2.8l-2-48.8l0-3.9l2.6-2.9
		c4.8-5.2,10.3-13.2,10.8-16.7c1-6.3,4.7-14.9,8.6-23.9c2.3-5.3,4.9-11.4,5.6-14.2c1.2-4.8,4-9,7-13.3c3.9-5.7,7.9-11.6,8.3-19.2
		c0.7-12.2,10-48.6,17.7-77l0.3-1l0.5-0.9c4.4-8.8,4.8-17,5-23.6c0.3-7.5,0.6-13.4,5.5-20.1c10.6-14.5,6.5-25.7,4.1-32.4
		c-0.4-1.1-0.8-2.2-1.1-3.1l-0.9-2.9l0.8-2.9c3.6-12.1,2-22.8,0.6-32.3c-0.4-2.9-0.9-5.9-1.2-8.8c-1-9.8-5.2-14-7.9-16.8
		c-2.9-2.9-4.1-5.2-5.3-10.3C497.5,80.1,490,71,483.4,64.1c-5-5.2-13.4-7.9-22.2-10.8c-2.1-0.7-4.9-1.6-7-2.4l-3.8-1.4l-1.9-4
		c-2-4.3-5.1-10.8-13.2-14.6c-26.6-12.7-40.2-15.3-46.9-15.3c-1.7,0-3.4,0.2-4.9,0.5c-3.1,0.7-6.6,1-10.7,1
		c-9.9,0-23.8-1.9-42.7-5.9c-4.5-0.9-8.9-1.4-13-1.4c-20.3,0-31,11.6-36.7,17.9l-2.4,2.6l-2.1,0.8c-3.7,1.5-7.6,4.1-11.7,6.9
		c-7.8,5.4-14.8,9.9-20.9,10.2c-14.4,0.8-19.7,8-24.4,14.4c-2.3,3.2-4.8,6.5-8.9,10.4c-7,6.5-10.9,14.6-11.7,24l-0.4,4.8l-4,2.7
		c-2.6,1.7-4.5,4.1-6.5,8.2c-1.4,2.9-3,5.6-7.5,9.9c-9.2,8.6-11.2,16.9-11.3,22.3c0,0.8,0,1.6,0.1,2.4l0.3,3.8l-2.2,3
		c-4.8,6.5-4.2,14.6-3.8,19.4c0.3,4.4,0.6,8.5-0.9,13c-4.6,13.5,0.7,23.8,4.6,31.2c2.7,5.1,4.3,8.5,4.2,12.2c0,3.8,0.6,7.2,1.9,10.1
		l1.6,3.4l-1.1,3.6c-5.2,17-4.6,36.2,2,56.6c2.6,7.8,16,24.2,17.7,31.1c4.7,19.4,27.6,19.2,27.8,19.2l4.6,1.2l0.7,7.7
		c0,0.4,3,10.1,2.9,21c0,4-0.2,8.5-0.4,13.2c0,0-39,18.4-44.5,21.4s-15.3,8.4-19,17.2c-2.1,5.2-8.2,17.4-14,30.9
		c-7.2,17.1-10.1,25.8-11.2,31l-45.2,27.2l-54.3,28.9L24,560.5v13l9.6-3.9l66.9-34.3l50.1-30.1c3.2,7.7,17.2,27.9,30.6,45.4
		c9.6,12.6,33.4,42.6,45.9,48.8c0.4,0.2,0.9,0.2,1.4,0c0.4-0.2,0.7-0.6,0.8-1.1c1.4-9.4,4.1-17.6,7.3-24.6c0.1,0.3,0.3,0.5,0.5,0.7
		c0.5,0.4,9.9,7.7,18.9,12.2c0,0.3,0,0.6,0.1,0.9c0.2,0.3,17.3,34.7,17.3,51.7l2,51.1c0,0.8,0.7,1.6,1.5,1.6c0,0,0,0,0.1,0
		c0.8,0,1.5-0.9,1.4-1.7l-2-51.1c0-15.2-12.6-42.5-16.5-50.6c2,0.8,3.9,1.4,5.7,1.6c9.9,1.3,15.6,2,15.7,2c0.1,0,0.1,0,0.2,0
		c0.8,0,1.4-0.6,1.5-1.3c0.1-0.8-0.5-1.6-1.3-1.7c-0.1,0-5.8-0.7-15.6-2c-9.5-1.3-26.9-14.9-27.1-15c-0.4-0.3-1-0.4-1.4-0.2
		c7.5-15.5,17.2-24.8,20.2-27.5l14.2,11.9c0.2,0.1,0.4,0.3,0.6,0.3c0.1,0,7.1,1.7,14.4,3.3c2.9,0.7,5.1,2,6.2,3.8
		c0.9,1.5,1.1,3.2,0.7,5c-1,4-3.9,21.7-4.1,22.5c-0.1,0.3,0,0.6,0.1,0.9c0.1,0.3,12.2,25.5,12.2,42V690c0,0.8,0.7,1.5,1.5,1.5
		s1.5-0.7,1.5-1.5v-55.8c0-16.1-10.6-39.3-12.3-42.9c0.5-2.9,3.1-18.2,3.9-21.8c0.6-2.6,0.3-5.2-1-7.3c-0.3-0.5-0.7-1.1-1.3-1.6
		c-0.3-0.6-0.6-1.2-0.9-1.8c-1.5-2.5-3.7-5.8-9.9-7.2c-5.3-1.2-5.5-1.4-7.9-2l-14-11.7c-4.5-5.3-21.7-26.2-43.7-46.5
		c8.2-7.3,17-16.4,19.3-24.1c3.6-11.6,3.5-55.1,3.2-75.9c9.1,18.3,23.7,35,35.7,43.7l6.5,4.8c10.1,7.4,18.9,13.8,24,17.2
		c2.2,1.8,20,15.1,46,15.1c1.7,0,3.5-0.1,5.3-0.2l1.6-0.1c25.2-1.8,49-3.4,59.5-30.2c1.8-2.4,6-8.2,10.6-14.5
		c-1.1,16.8-2,48.6,5.1,60.6c9.7,16.3,59.2,30,61.3,30.6c0.1,0,0.1,0,0.2,0c-17.2,21.7-50,54.5-88.9,64.2l-0.1,3.5
		c-0.8,0.2-1.3,1-1.1,1.7c0.2,0.8,1,1.3,1.8,1.2c35-7,62.6-30.2,79.7-48.4c16.7-17.8,26.7-34.5,28.5-37.6c1.2-0.3,4.6-0.9,9.7,1.1
		c4.7,1.9,7.5,4.3,8.6,5.4l-6.1,12.2c0,0,0,0.1,0,0.1c-18.6,45.2-50.4,67.3-73.8,77.8c-25.4,11.5-46.6,12.2-46.9,12.2
		c-0.8,0-1.5,0.7-1.5,1.5c0,0.8,0.7,1.4,1.5,1.4c0,0,0,0,0,0c0.9,0,22-0.7,47.9-12.3c23.9-10.8,56.4-33.2,75.4-79.3l5.6-11.3
		l5.7,2.1l34,12.1l56,17.8l41.9,10.8V542L624.4,528.5z M432.9,391.5c-0.7-0.5-1.6-0.4-2.1,0.3c-0.3,0.4-7.7,10.1-15.7,41.1
		c-0.5,2.1-1.2,4.1-1.9,5.9c-0.2,0.3-0.4,0.5-0.4,0.6c-0.3,0.4-0.3,0.8-0.3,1.2c-9,22-28.1,23.3-53.6,25.1l-1.6,0.1
		c-27.5,1.9-46.8-13.5-46.9-13.7c0,0-0.1-0.1-0.1-0.1c-4.9-3.3-13.7-9.7-23.9-17.2l-6.5-4.8c-13.8-10.1-32.1-32.5-39-54.2
		c-3.6-11.5-9.4-56.3-9.5-56.7c-0.1-0.8-0.9-1.4-1.7-1.3c-0.8,0.1-1.4,0.9-1.3,1.7c0.1,0.5,0.6,4.7,1.4,10.7c-0.6,0-1.2,0.4-1.4,1
		c-2.7,8.8-16,6.6-17.1,6.4c-5.6-1.8-6.6-5.5-7.5-9c-0.6-2.4-1.2-4.9-3.5-6.1c-4.9-2.7-9.8-10.8-14-22.9c-3.6-10.6-5.6-21.6-5.8-27
		c-0.2-9.1,6.9-23.2,9.3-27.8c0.1,0,0.1,0.1,0.2,0.1c3.9,1.8,7.3,3.3,8.1,7.2c1.3,6.2,4.6,7.6,7.1,8.6c2.4,1,4.1,1.7,4.2,7.3
		c0.2,9.1,5.2,11.4,8.5,12.9c2.2,1,3.1,1.5,3.3,2.7c1.1,5.9,3.4,22.2,3.4,22.3c0.1,0.4,0.2,0.8,0.5,1.1l7.7,8.4
		c0.4,0.4,0.9,0.7,1.5,0.7c0,0,0,0,0,0c1.1,0,2-0.9,2-2c0-0.1,0-0.3,0-0.4c-0.1-2.8-1.1-26.1-1.8-38.7c-0.5-8.9,0.5-22.2,1.2-32.9
		c0.4-5.4,0.7-10.1,0.8-13.5c0.3-9.4,3.8-18,9.9-24.4c4.8-5,3-10.8,1.2-16.9c-1-3.5-2.1-7.1-2.2-11c-0.1-4.5,2.3-6.3,5.3-8.4
		c3-2.2,6.7-4.9,6.3-10.9c-0.4-5.9,1.7-7.7,2.8-8.2c4,3.1,8.4,4.7,13.1,4.7c8.9,0,15.7-5.7,16.6-6.5c7.7-5.6,9.7-7,12.7-7
		c1.6,0,3.6,0.4,6.5,0.9c1,0.2,2.1,0.3,3.4,0.3c11.2,0,31.4-7.6,35.4-13.4c1.6-2.3,6.6-4,11.9-4c5.4,0,10,1.7,12.4,4.6
		c3,3.6,6.1,4.3,9.4,5c4.9,1.1,11,2.4,21.5,13.9c10.3,11.3,20.4,11.4,29.3,11.4c7.1,0.1,13.2,0.1,18.5,5.9
		c10.2,11.2,16.7,14.9,19.2,16c5.7,19.8,4.2,37,1.8,52.7c-2.7,17-2.1,44.2-2.1,45.4c0,0.1,0,0.1,0,0.2c1.2,11.4-4.3,29.6-4.3,29.8
		c-0.3,0.9,0.2,1.9,1,2.4c0.9,0.4,1.9,0.2,2.5-0.6c0.3-0.5,8.1-11.2,8.5-19.8c0.1-2.8,1.3-7.6,5-15.8c0.1,0.9,0.2,1.9,0.4,3
		c1.5,11.4-2.8,25.2-7,38.5c-2.3,7.2-4.4,14-5.5,20.1c-1.5,8.3-4,10.6-5.3,11.2c-0.8,0.4-1.6,0.3-2.1,0.1l3.5-28.4
		c0.1-0.8-0.5-1.6-1.3-1.7c-0.8-0.1-1.6,0.5-1.7,1.3l-3.6,29.5c-2.5,18-15.1,48.2-19.7,53.7c-3.4,4.1-14.8,19.6-21.8,29.2
		c7.6-28.5,14.6-37.8,14.6-37.8C433.6,393,433.5,392,432.9,391.5z M173.5,190.4c2.3-6.8,1.9-12.8,1.5-17.7
		c-0.5-7.6-0.9-12.2,8.1-15.8c0.6-0.3,1.1-0.8,1.2-1.4c0.1-0.7-0.1-1.3-0.5-1.8c0,0-3.2-3.4-3.1-8.5c0.1-4.5,2.6-9.1,7.5-13.7
		c6.5-6.1,8.6-10.5,10.1-13.3c1.8-3.7,2.4-4.9,11.9-6.1c0.6-0.1,1.1-0.4,1.5-1s0.4-1.2,0.1-1.7c-0.1-0.2-6-15.7,6.5-27.5
		c5-4.6,8-8.8,10.4-12.1c4.4-6,6.6-9,15.3-9.5c9.9-0.5,19.4-7,27-12.3c4.1-2.8,8-5.5,10.5-6c2.7-0.6,5-3,7.8-6.1
		c5.4-5.9,12.9-14,27.9-14c3.3,0,6.8,0.4,10.6,1.2c19.9,4.2,34.3,6.1,45.2,6.1c5,0,9.4-0.4,13.3-1.3c0.6-0.1,1.4-0.2,2.3-0.2
		c11.1,0,34.7,10.8,41.7,14.2c4.2,2,5.8,5.4,7.5,8.9c1.2,2.6,2.5,5.3,4.8,7.5c2.7,2.6,8.4,4.4,15,6.6c6.7,2.2,14.3,4.6,17.2,7.7
		c5.5,5.8,11.8,13.4,16.2,31.3c2.4,9.8,5.8,13.2,8.5,15.9c2.3,2.3,4,4,4.5,9.5c0.3,3.2,0.8,6.4,1.2,9.4c1.4,9.2,2.7,17.9-0.4,27.8
		c-1.9,6.2-0.2,11.1,1.5,15.7c2.3,6.4,4.3,11.9-2.5,21.2c-7.1,9.7-7.5,18.4-7.8,26.7c-0.3,7-0.6,13.6-4.8,20.7
		c-11.3,18.9-17.2,32.3-17.5,39.8c-0.1,1.2-0.3,2.5-0.7,3.8c0.9-5.2,1.4-11,0.9-15.7c0-1.7-0.5-28.4,2.1-44.6
		c2.5-16.4,4.1-34.4-2.2-55.3c-0.2-0.6-0.7-1.2-1.4-1.4c-0.1,0-6.4-2.1-18.4-15.3c-6.4-7.1-14.1-7.1-21.4-7.2
		c-8.5-0.1-17.3-0.1-26.4-10.1c-11.4-12.5-18.4-14-23.6-15.2c-3.1-0.7-5.1-1.1-7.2-3.7c-3.2-3.8-8.9-6-15.5-6
		c-6.7,0-12.8,2.3-15.2,5.7c-3,4.3-21.7,11.6-32.1,11.6c-1,0-1.9-0.1-2.6-0.2c-3.2-0.6-5.3-1-7.3-1c-4.4,0-7.1,2-15.2,7.8
		c-0.1,0-0.1,0.1-0.2,0.1c-0.1,0.1-6.3,5.5-14,5.5c-4.1,0-7.9-1.5-11.3-4.5c-0.4-0.4-1-0.5-1.5-0.5c-0.1,0-7.9,1-7.1,12.7
		c0.3,3.6-1.5,5.1-4.7,7.4c-3.2,2.3-7.1,5.1-7,11.8c0.1,4.4,1.3,8.5,2.4,12c1.8,6.2,2.7,9.9-0.3,13c-6.8,7.1-10.7,16.7-11,27
		c-0.1,3.3-0.4,7.9-0.8,13.3c-0.8,10.8-1.8,24.3-1.2,33.4c0.5,9.5,1.2,25.2,1.6,33.5l-3.6-3.9c-0.4-3.1-2.4-16.5-3.4-21.9
		c-0.6-3.4-3.3-4.6-5.6-5.6c-3.1-1.4-6-2.7-6.2-9.3c-0.2-7.6-3.1-9.4-6.6-10.9c-2.3-0.9-3.9-1.6-4.7-5.7c-1.2-5.9-6-8.1-10.3-10
		c-5.1-2.3-9.2-4.2-9.1-11.1c0.1-6.9-2.8-12.5-5.6-17.9C173.8,205.5,170.5,199.1,173.5,190.4z M226.6,595.8
		c-8.8-5.6-24.6-22.8-43.1-47c-17.8-23.2-30.4-42.9-30.7-46.1c-0.6-7.3,20.3-53.4,24.1-60.9c2.9-5.7,13.6-11.5,13.6-11.6L232,409
		v2.1c-5.2,2.9-35,19.6-39.1,21.8c-2.9,1.6-11.1,9.3-12.2,20.4c-1,10.2,4.3,20.1,15.8,29.5c25.6,21,52.9,52.6,58.9,59.7
		C250.3,546.9,232.1,564.8,226.6,595.8z M209.9,490.4c-3.8-3.5-7.7-6.8-11.5-10c-10.6-8.7-15.5-17.7-14.7-26.9
		c0.9-9.7,8.2-16.7,10.6-18c4.4-2.4,39.5-22.1,39.9-22.3c0.1-0.1,0.2-0.1,0.2-0.2c-0.1,21.5-0.8,45.1-3,52.5
		C229.3,472.4,219.5,482.3,209.9,490.4z M497.6,516.2l0.3,0.1c0,0.1-0.1,0.1-0.1,0.2C497.7,516.4,497.6,516.3,497.6,516.2z"/>
	<path fill="#B85834" d="M217.9,284.4c0.3-0.8-0.1-1.6-0.9-1.9c-0.8-0.3-1.6,0.1-1.9,0.9c-0.2,0.4-4,10.9,0.5,16.9
		c2.3,3,2.5,6,1.7,7.7c-0.3,0.5-0.6,0.8-0.8,0.8c-0.9,0-1.7-0.5-3.3-1.5c-0.8-0.5-1.7-1-2.7-1.6c1.3,0.6,2.3,0.8,3.2,0.8
		c0.8,0,1.4-0.2,1.9-0.6c1.7-1.4,0.6-4.1,0.4-4.7c-0.3-0.8-1.2-1.1-2-0.8c-0.8,0.3-1.1,1.2-0.8,2c0.1,0.3,0.3,0.8,0.3,1.1
		c-0.6-0.1-2.2-0.5-6-3c-0.7-0.5-1.6-0.3-2.1,0.4c-0.5,0.7-0.3,1.6,0.4,2.1c0.9,0.6,1.6,1,2.4,1.5c-0.2-0.1-0.4-0.2-0.6-0.3
		c-6.1-2.7-6.6-4.9-9.2-14.3l-0.6-2.2c-1.8-6.7-4.3-15.9,0.6-21.9c0.5-0.6,0.4-1.6-0.2-2.1c-0.6-0.5-1.6-0.4-2.1,0.2
		c-5.9,7.2-3,17.6-1.1,24.6l0.6,2.2c2.5,9.5,3.5,13,10.8,16.3c2.3,1,3.9,2.1,5.2,2.9c1.7,1.1,3.1,2,4.9,2c0,0,0.1,0,0.1,0
		c1.4,0,2.7-1,3.4-2.5c1.1-2.3,1.3-6.5-2-10.8C214.4,293.7,217.8,284.5,217.9,284.4z"/>
	<path fill="#B85834" d="M299.9,219.4c2.8,0.2,6.9,0.6,11.7,1.1c6.6,0.7,16,1.6,22.1,1.9c0,0.5,0.2,0.9,0.5,1.2
		c0.6,0.5,1.6,0.4,2.1-0.2l2.5-3.1c-0.2,0.7-0.5,1.3-1,1.7c-0.6,0.6-0.6,1.5,0,2.1c0.3,0.3,0.7,0.4,1,0.4c0.4,0,0.8-0.2,1.1-0.5
		c0.3-0.3,0.5-0.6,0.8-1c0.1,0.1,0.1,0.2,0.2,0.3c0.3,0.3,0.7,0.5,1.1,0.5c0.4,0,0.7-0.1,1-0.4c1.7-1.5,2.1-4,2.1-4.3
		c0.1-0.8-0.5-1.6-1.3-1.7c-0.8-0.1-1.6,0.4-1.7,1.3c0,0.2-0.1,0.6-0.3,1.1c0.4-2.3,0.1-4.4,0.1-4.5c-0.1-0.6-0.5-1.1-1.1-1.2
		c-0.6-0.1-1.2,0-1.5,0.5l-2.4,2.9c0.1-0.7,0.1-1.3,0.1-2c-0.1-1.5-0.7-1.6-0.9-1.7c-4.5-0.8-14.1-1.2-19.7-1.4
		c-2.7-0.1-5.2-0.2-7.7-0.3c-3.1-0.2-6-0.3-8.6-0.3c-3.9,0-6.7,0.4-8.8,1.1c-5.9,2.1-26.2,8.5-26.4,8.5l-0.1,0l-0.1,0
		c-1.6,0-3.4,3.9-4.4,7.2c2.6-0.8,7.6-2.3,11.1-3.7c4.7-2,17.9-6,26.7-6C298.7,219.3,299.3,219.4,299.9,219.4z"/>
	<path fill="#B85834" d="M335.3,316.3c-2.3-3.5-1.4-9.4,0.8-12.5c0.5-0.7,0.3-1.6-0.3-2.1c-0.7-0.5-1.6-0.3-2.1,0.3
		c-2.9,4-4,11.2-0.9,15.9c1.7,2.6,5.4,5.4,13,3.7c9.9-2.2,11.3-0.4,14.2,3.4c1.1,1.5,2.4,3.1,4.4,4.9c3.2,2.9,6.9,3.7,10.1,3.7
		c4.6,0,8.3-1.7,8.5-1.8c0.1-0.1,0.2-0.1,0.3-0.2c3.7-3,5.2-5.8,8.1-11.2c0.8-1.4,1.6-3,2.7-4.9c2.8-5,2.6-10.4,1.7-15.5
		c4.2,3.9,6.2,7.6,5.9,10.9c-0.4,4.2-4.4,7.2-7.7,9c-0.7,0.4-1,1.3-0.6,2c0.3,0.5,0.8,0.8,1.3,0.8c0.2,0,0.5-0.1,0.7-0.2
		c5.7-3.1,8.9-7,9.3-11.4c0.4-5-2.7-10.2-9.5-15.6c-0.1-0.1-0.3-0.2-0.4-0.2c-0.1-0.6-0.3-1.1-0.4-1.7c-0.6-2.4-1.2-4.7-1.4-6.7
		c-0.2-2-0.3-3.7-0.4-5.3c-0.3-4.8-0.5-9.4-4.2-20.2c-4.5-13.5-0.6-22.2-0.5-22.4c0.4-0.7,0-1.6-0.7-2c-0.7-0.4-1.6,0-2,0.7
		c-0.2,0.4-4.5,9.8,0.4,24.6c3.5,10.5,3.7,14.9,4,19.5c0.1,1.7,0.2,3.4,0.4,5.5c0.3,2.2,0.8,4.6,1.5,7.1c1.6,6.4,3.3,13.5,0,19.7
		c-1,1.9-1.9,3.5-2.7,5c-2.8,5.3-4,7.6-7.2,10.2c-1.2,0.5-9.4,3.7-15.2-1.5c-1.8-1.6-3-3.1-4-4.5c-3.5-4.5-6.1-7-17.3-4.5
		C341.8,319.5,337.5,319.7,335.3,316.3z"/>
	<path fill="#B85834" d="M308.9,260.1c8.7,0,21.7-3.3,22.3-3.5c0.8-0.2,1.3-1,1.1-1.8c-0.2-0.8-1-1.3-1.8-1.1
		c-0.1,0-6.5,1.6-13.2,2.6c1.9-2,3-4.7,3-7.5c0-1.9-0.5-3.8-1.5-5.4c2.8,0.6,4.4,1.6,6.4,3c4,2.8,5.9,5.3,5.9,5.3
		c0.3,0.4,0.8,0.6,1.2,0.6c0.3,0,0.6-0.1,0.9-0.3c0.7-0.5,0.8-1.4,0.3-2.1c-0.1-0.1-2.1-2.9-6.6-6c-4.8-3.3-7.9-4.3-20.8-4.6
		c-13.6-0.3-21.2,8.8-21.5,9.2c-0.5,0.6-0.4,1.6,0.2,2.1c0.6,0.5,1.6,0.4,2.1-0.2c0.1-0.1,4.9-5.8,13.5-7.6c-1.2,1.8-1.8,3.8-1.8,6
		c0,2.9,1.1,5.6,3.1,7.6c-6.6-1-12.8-2.6-12.8-2.7c-0.8-0.2-1.6,0.3-1.8,1.1c-0.2,0.8,0.3,1.6,1.1,1.8c0.4,0.1,10.2,2.7,18.6,3.4
		C307.4,260.1,308.1,260.1,308.9,260.1z M304.7,242.7c0.1-0.1,0.2-0.2,0.3-0.3c0.4,0,0.8,0,1.1,0c3.5,0.1,6.2,0.2,8.4,0.4
		c0,0,0.1,0.1,0.1,0.1c1.7,1.5,2.7,3.6,2.7,5.9c0,2.8-1.5,5.4-3.9,6.8c-0.5,0.3-0.7,0.8-0.7,1.3c-1.9,0.2-3.8,0.2-5.3,0.1
		c-0.1-0.4-0.4-0.8-0.9-1c-2.9-1.2-4.8-4.1-4.8-7.2C301.7,246.4,302.8,244.1,304.7,242.7z"/>
	<path fill="#B85834" d="M440.4,261.4c-0.3-0.8-1.1-1.2-1.9-1c-2.5,0.8-5.3,1.3-8,1.5c1.2-1.8,1.9-3.9,1.9-6.1
		c0-1.9-0.5-3.7-1.4-5.4c2.5,0.6,4.8,1.4,6,2.6l5.5,6.5c0.3,0.3,0.7,0.5,1.1,0.5c0.4,0,0.7-0.1,1-0.4c0.6-0.5,0.7-1.5,0.1-2.1
		l-5.5-6.4c0,0-0.1-0.2-0.1-0.2c-4.8-4.6-19.5-4.9-21.2-4.9c0,0,0,0,0,0c-7.6,0-15.1,7-15.4,7.3c-0.6,0.6-0.7,1.6-0.1,2.3
		c0.6,0.6,1.5,0.6,2.1,0c0,0,3.5-3.2,7.7-5.1c-1,1.6-1.5,3.5-1.5,5.5c0,1.7,0.4,3.4,1.2,4.9c-4.3-0.8-7.2-1.6-7.2-1.6
		c-0.8-0.2-1.6,0.2-1.9,1c-0.2,0.8,0.2,1.6,1,1.9c0.6,0.2,10.9,3.2,22.2,3.2c4.5,0,9.2-0.5,13.5-1.9
		C440.2,263,440.6,262.2,440.4,261.4z M415.5,261.3c0-0.3-0.1-0.6-0.3-0.8c-1-1.4-1.5-3-1.5-4.7c0-2.3,1-4.4,2.7-5.9
		c0.3-0.2,0.4-0.6,0.5-0.9c0.3,0,0.7-0.1,1-0.1c0,0,0,0,0,0c1.9,0,5.2,0.2,8.6,0.7c0.1,0.1,0.2,0.2,0.3,0.3c1.7,1.5,2.7,3.6,2.7,5.9
		c0,2.1-0.8,4.1-2.3,5.5c-0.2,0.2-0.3,0.5-0.4,0.7C422.7,262.2,418.9,261.8,415.5,261.3z"/>
	<circle fill="#B85834" cx="309.9" cy="248.6" r="3.6"/>
	<circle fill="#B85834" cx="421.9" cy="255.6" r="3.6"/>
	<path fill="#B85834" d="M415.4,364.9c-0.1-0.3-0.2-0.6-0.4-0.8c-0.3-0.3-0.8-0.4-1.2-0.4c0-0.5,0-0.9-0.1-1.3c0.6,0,1.2-0.4,1.4-1
		c0.3-0.8-0.1-1.6-0.9-1.9c-0.2-0.1-5.9-2.1-15.9-2.2c-4.8-0.1-9.2,0.9-13.8,1.9c-5.2,1.1-10.5,2.3-17.1,2.2
		c-7.8-0.1-17.2-1.3-25.4-2.4c-5.1-0.7-10-1.3-13.9-1.6c-10.3-0.8-21.2,1.2-21.6,1.3c-0.8,0.1-1.4,0.9-1.2,1.7
		c0.1,0.8,0.9,1.4,1.7,1.2c0,0,0.5-0.1,1.2-0.2c-0.2,0.8-0.3,1.8-0.2,3.2c0,0,0,0,0,0c-0.7-0.4-1.6-0.2-2.1,0.5
		c-0.1,0.2-0.2,0.4-0.2,0.6c-0.3,0-0.6,0.2-0.8,0.4c-0.6,0.6-0.6,1.5,0,2.1c0.3,0.3,8.2,8.4,20.4,15.9c9.9,6.1,24.3,12.8,39.9,12.8
		c2.4,0,4.8-0.2,7.2-0.5c31.2-4.3,43.5-29.3,43.6-29.6C416.5,366.1,416.2,365.2,415.4,364.9z M390.6,376.8c-1.6,0.4-3.5,0.8-5.2,1.1
		c-0.9,0-1.2-0.3-1.3-0.4c0-0.6-0.4-1.2-1-1.4c-0.6-0.2-1.3,0-1.7,0.5l-1.4,1.9c-0.1,0.1-0.2,0.3-0.2,0.5c-0.2,0.2-1.3,1-5.4,1.2
		c-0.7,0-1.3,0.1-1.9,0.1c-2.8,0-3.7-0.5-3.9-0.6c-0.3-0.5-0.9-0.9-1.5-0.8c-0.6,0.1-1.1,0.5-1.2,1.1c-0.2,0.2-1,0.6-3.4,0.8
		c-0.6,0-1.2,0.1-1.9,0.1c-0.8,0-1.5,0-2.3-0.1c-1.3-0.1-2.5-0.2-3.8-0.4c-1.7-0.2-3.1-0.5-3.6-0.8c-0.4-0.7-0.8-1.8-0.9-2.2
		c-0.3-0.7-1-1.1-1.7-0.9c-0.7,0.2-1.2,0.8-1.2,1.6c0,0,0,0.1,0,0.1c0,0-0.2,0-0.4,0c-2-0.2-7.7-1.6-8.9-2.4c-0.3-0.8-1-1.1-1.5-1.1
		c-0.6,0-1,0.3-1.3,0.5c-0.3,0.2-0.6,0.4-1,0.4c-0.3,0-0.7-0.1-1.1-0.3c-1.4-0.7-3-1.1-4.4-1.4c-0.6-0.1-1.3-0.3-1.9-0.5
		c-0.3-0.1-0.7-0.3-1-0.4c-0.1,0-0.2-0.1-0.2-0.1c-0.2-0.5-0.6-0.9-1.2-1l-2.4-0.4c-0.3-0.1-0.6-0.3-0.9-0.4l-3-1.8
		c-0.2-0.7-0.6-2.2-0.7-4.1c-0.3-3.3,0.3-4,0.3-4c0,0,0,0,0,0c0.5-0.3,1.2-0.5,2.1-0.5c2.1,0,4.5,0.9,6,2.3c0.5,0.5,1.2,0.6,1.8,0.2
		c1-0.6,2.7-0.9,4.2-0.9c1.8,0,3.2,0.5,3.6,1.3c0.2,0.4,0.6,0.7,1.1,0.8c0.5,0.1,0.9-0.1,1.3-0.4c0.7-0.6,3.1-1.5,5.8-1.5
		c1.4,0,4,0.3,4.9,2.2c0.4,0.7,1.3,1.1,2,0.7c0.3-0.1,0.6-0.3,0.9-0.5c0.5-0.3,1-0.6,1.4-0.6c1.3-0.1,2.4-0.1,3.3-0.1
		c2.6,0,4.8,0.2,7.9,0.9c0.5,0.1,1.1,0.9,1.7,1.6c0.2,0.3,0.5,0.6,0.7,0.9c0.4,0.4,0.9,0.6,1.4,0.5c0.5-0.1,1-0.5,1.1-1
		c0.1-0.2,0.6-1.2,2-1.6c2.2-0.6,5.8-1.7,9.9-1.7c1.1,0,1.3,0,2.3,1.7c0.2,0.3,0.6,0.6,0.9,0.7c0.4,0.1,0.8,0,1.1-0.2l0.1-0.1
		c1.5-1,5.1-3.3,8.4-3.3c1.4,0,2.6,0.4,3.7,1.3c0.3,0.3,0.7,0.4,1.1,0.3c0.4,0,0.8-0.2,1-0.6c0.9-1.1,3.4-2,5.6-2
		c1,0,1.6,0.2,1.8,0.3c0.5,0.7,0.3,4.2-0.4,7.6l-5.1,3.1c-2.2,0.6-3.6,0.9-4.5,1.3c0,0-0.1,0-0.1,0c-0.3,0-1.5,0.1-1.8,1.7
		C393.5,375.8,392.1,376.3,390.6,376.8z M397.7,360.3c0.2,0,0.3,0,0.5,0c-0.1,0-0.1,0.1-0.2,0.1
		C397.9,360.4,397.8,360.4,397.7,360.3z M384.8,362.2c-0.1,0-0.2,0.1-0.2,0.1c0,0,0,0-0.1-0.1C384.6,362.3,384.7,362.3,384.8,362.2z
		 M372,393.5c-26.6,3.7-51.8-15.6-61.2-23.8c2.2,1.2,5.2,2.6,8.8,4.2l0.3,0.2c0.2,0.1,0.3,0.2,0.5,0.2l0.1,0
		c10.8,4.6,26.8,9.8,43.6,9.8c1.5,0,2.9,0,4.4-0.1c9.1-0.5,16.8-2.2,23.1-4.3c2.6-0.7,4.1-1.3,4.9-1.8c6.3-2.6,10.9-5.5,13.9-7.7
		C405.6,377.2,393.5,390.5,372,393.5z"/>
	<path fill="#B85834" d="M415.4,356.4c-2.4-1.1-23.5-10.3-31.3-6.6c-2.3,1.1-7.7,2.6-13.4,2.7c-6.3,0-12.7-1.6-15.4-2.8
		c-8-3.3-46.4,4.7-50.7,5.6c-0.8,0.2-1.3,1-1.2,1.8c0.2,0.8,1,1.4,1.8,1.2c11.6-2.5,42.9-8.1,49-5.7c3.6,1.5,10.2,3.3,16.4,3.3
		c0.1,0,0.1,0,0.2,0c5.8-1,11.6-1.8,14.6-3.2c5.6-2.6,22.7,3.6,28.8,6.4c0.2,0.1,0.4,0.1,0.6,0.1c0.6,0,1.1-0.3,1.4-0.9
		C416.5,357.7,416.1,356.8,415.4,356.4z"/>
	<path fill="#B85834" d="M287.1,237.7c-0.6,0.6-0.6,1.5-0.1,2.1c0.3,0.3,0.7,0.5,1.1,0.5c0.4,0,0.7-0.1,1-0.4
		c0.1-0.1,6.6-5.8,24.5-3.9c0.8,0.1,1.6-0.5,1.6-1.3c0.1-0.8-0.5-1.6-1.3-1.6C294.5,231,287.4,237.4,287.1,237.7z"/>
	<path fill="#B85834" d="M422.9,240.3c-0.8,0-1.5,0.7-1.5,1.5c0,0.8,0.7,1.5,1.5,1.5c0.1,0,8.3-0.1,12.6,2c4.4,2.1,6.6,4.2,6.6,4.2
		c0.3,0.3,0.7,0.4,1,0.4c0.4,0,0.8-0.2,1.1-0.5c0.6-0.6,0.6-1.5,0-2.1c-0.1-0.1-2.6-2.5-7.4-4.8
		C431.9,240.2,423.2,240.3,422.9,240.3z"/>
	<path fill="#B85834" d="M403.8,229.4c0.3,0.2,0.6,0.3,0.9,0.3c0.4,0,0.7-0.1,1-0.4c0.2,0.1,0.4,0.2,0.7,0.2c0.1,0,0.3,0,0.4-0.1
		c0.8-0.2,1.2-1.1,1-1.9c-0.2-0.5-0.3-1.1-0.4-1.7l0.7,1.6c0.2,0.6,0.8,0.9,1.4,0.9c0.1,0,0.3,0,0.4-0.1c0.7-0.2,1.2-0.9,1.1-1.7
		c0,0-0.1-0.7-0.1-1.8c0.2,0.5,0.5,1,0.9,1.4l0.5,0.5l0.6-0.3c0.4-0.2,0.7-0.3,1-0.4c1.8-0.8,2.5-1,7.9-1.8c0,0,4.7-0.7,10.4-0.7
		c5.5,0,9.9,0.6,13.1,1.9l15.8,9.1l0.2,0c0.3,0,0.8,0,1.3,0l3,0l-2.6-1.8c-2-1.5-4-3.7-4-3.7v0c0-0.1-1.4-6-14.3-10.2
		c-4.6-1.5-9.9-2.2-16.7-2.2c-7,0-12.8,0.8-14.5,1l-0.3,0l-0.2,0.2c-0.3,0.3-0.8,0.8-1.2,1.5c0.1-0.7-0.3-1.4-1-1.6
		c-0.8-0.3-1.6,0.2-1.9,1c-0.1,0.4-0.3,0.9-0.4,1.3l-0.1-0.2c-0.3-0.8-1.2-1.1-2-0.8c-0.3,0.1-0.5,0.3-0.6,0.5c-0.5,0-1,0.3-1.3,0.8
		c-0.2,0.4-0.3,0.8-0.4,1.3c-0.7-0.3-1.5,0-1.9,0.6C401.5,224,400.9,227.1,403.8,229.4z"/>
	<path fill="#B85834" d="M193.8,266.1c0.4-0.7,0.1-1.6-0.6-2c-0.7-0.4-1.6-0.2-2,0.6c-0.2,0.4-4.9,9-1.1,22c0.2,0.7,0.8,1.1,1.4,1.1
		c0.1,0,0.3,0,0.4-0.1c0.8-0.2,1.3-1.1,1-1.9C189.5,274.1,193.7,266.3,193.8,266.1z"/>
</g>
</svg>
